<?xml version="1.0" standalone="no"?>
<!DOCTYPE svg PUBLIC "-//W3C//DTD SVG 20010904//EN"
 "http://www.w3.org/TR/2001/REC-SVG-20010904/DTD/svg10.dtd">
<svg version="1.0" xmlns="http://www.w3.org/2000/svg"
 width="16.000000pt" height="16.000000pt" viewBox="0 0 16.000000 16.000000"
 preserveAspectRatio="xMidYMid meet">
<metadata>
Created by potrace 1.11, written by Peter Selinger 2001-2013
</metadata>
<g transform="translate(0.000000,16.000000) scale(0.004000,-0.004000)"
fill="#000000" stroke="none">
<path d="M806 3991 c-3 -4 -33 -11 -67 -15 -34 -3 -67 -10 -73 -15 -6 -4 -24
-11 -41 -15 -27 -6 -173 -74 -185 -86 -3 -3 -24 -18 -47 -33 -90 -61 -215
-214 -275 -337 -17 -35 -39 -90 -40 -100 0 -3 -3 -9 -8 -15 -4 -5 -11 -28 -15
-50 -4 -22 -11 -45 -16 -51 -5 -6 -12 -43 -15 -83 -4 -39 -11 -74 -15 -77 -12
-7 -12 -2231 0 -2238 4 -3 11 -38 15 -77 3 -40 10 -77 15 -83 5 -6 12 -29 16
-51 4 -22 10 -44 13 -50 4 -5 7 -12 8 -15 16 -81 142 -277 234 -364 94 -88
235 -175 312 -191 18 -4 38 -11 43 -15 32 -26 213 -30 1340 -30 1127 0 1308 4
1340 30 6 4 25 11 43 15 77 16 218 103 312 191 92 87 218 283 234 364 1 3 4
10 8 15 3 6 9 28 13 50 4 22 11 45 15 50 25 32 30 239 30 1280 0 1041 -5 1248
-30 1280 -4 6 -11 28 -15 50 -4 22 -10 44 -13 50 -4 5 -7 12 -8 15 -2 11 -25
67 -42 100 -60 123 -185 276 -275 337 -23 15 -44 30 -47 33 -12 12 -158 80
-185 86 -16 4 -35 11 -41 15 -6 5 -39 12 -73 15 -34 4 -64 11 -67 15 -3 5
-542 9 -1199 9 -657 0 -1196 -4 -1199 -9z m-155 -388 c186 -257 299 -413 469
-648 95 -132 185 -256 199 -275 15 -19 65 -88 111 -153 47 -65 107 -148 133
-185 27 -37 55 -77 63 -89 15 -21 11 -25 -77 -113 -88 -87 -93 -90 -109 -73
-17 17 -443 568 -753 973 l-150 195 7 155 c3 85 6 197 6 248 0 50 2 92 4 92 3
0 46 -57 97 -127z m2783 -128 l7 -250 -88 -115 c-49 -63 -149 -194 -223 -290
-128 -166 -297 -385 -509 -658 l-95 -122 -67 69 c-37 38 -79 77 -93 86 -14 10
-26 21 -26 25 0 5 42 66 93 137 51 70 183 252 292 403 109 151 215 298 235
325 20 28 86 118 145 200 59 83 136 188 170 235 34 47 81 113 106 147 24 33
45 60 45 60 1 -1 5 -114 8 -252z m-2747 -672 c78 -104 239 -319 360 -478 120
-160 242 -322 271 -362 l53 -72 -29 -68 c-16 -37 -38 -96 -48 -130 -10 -35
-21 -63 -25 -63 -6 0 -84 96 -455 559 -32 41 -110 138 -171 215 l-113 141 0
223 c0 122 4 222 8 222 5 0 72 -84 149 -187z m2763 -39 l0 -226 -313 -392
c-172 -215 -336 -421 -366 -458 -54 -70 -71 -81 -71 -50 0 19 -47 155 -73 214
l-17 36 221 294 c122 161 307 409 413 550 105 141 194 257 199 257 4 1 7 -101
7 -225z m-2790 -591 c63 -84 221 -290 350 -460 l234 -308 8 -87 c9 -98 38
-231 67 -309 11 -29 19 -55 17 -57 -2 -2 -40 41 -83 95 -43 54 -160 197 -258
318 -98 121 -246 302 -327 402 l-148 182 0 191 c0 149 3 191 13 188 6 -2 64
-72 127 -155z m2800 -38 l0 -194 -43 -53 c-24 -29 -122 -150 -218 -268 -96
-118 -244 -301 -329 -405 -85 -105 -170 -209 -189 -233 -18 -24 -35 -41 -37
-39 -2 2 3 21 11 41 32 76 66 224 72 315 l6 94 96 126 c52 69 142 187 198 261
57 74 174 228 260 343 87 114 161 207 165 207 5 0 8 -88 8 -195z m-1340 -19
c57 -3 140 -31 140 -47 0 -5 -5 -9 -12 -9 -6 0 -8 -3 -5 -6 4 -4 13 -2 20 4
10 9 23 7 53 -8 47 -24 74 -44 74 -56 0 -5 -27 -24 -60 -43 -33 -19 -58 -36
-57 -38 4 -4 65 28 97 50 13 9 32 17 41 17 17 0 79 -63 79 -79 0 -13 -90 -78
-131 -96 -19 -8 -28 -14 -20 -15 19 0 113 55 136 80 10 11 21 20 25 20 10 0
70 -87 70 -102 -1 -15 -24 -33 -123 -94 -39 -24 -68 -44 -63 -44 16 0 146 80
175 108 13 12 17 12 28 -4 14 -20 43 -108 43 -132 0 -18 -34 -45 -124 -100
-39 -24 -60 -40 -46 -36 14 3 31 11 39 17 7 6 22 16 32 22 10 5 37 23 59 39
22 16 43 26 47 22 3 -3 8 -30 11 -60 4 -53 3 -54 -39 -94 -24 -22 -55 -50 -69
-61 -14 -11 -20 -20 -15 -21 6 0 34 20 62 45 28 25 54 42 56 38 9 -15 -36
-168 -55 -190 -11 -12 -47 -39 -79 -59 -33 -20 -57 -39 -55 -41 3 -3 30 12 61
32 31 21 58 36 60 33 8 -7 -64 -111 -108 -156 -61 -63 -134 -109 -197 -126
-30 -8 -54 -19 -53 -25 2 -9 -53 -5 -65 4 -2 2 17 33 42 71 25 37 46 71 46 75
0 4 16 10 35 13 19 4 37 12 41 18 5 7 2 9 -7 6 -8 -3 -22 -9 -31 -13 -13 -5
-18 -2 -19 11 0 17 -2 17 -16 -3 -8 -13 -25 -23 -36 -23 -20 0 -20 -1 -3 -13
18 -13 18 -15 1 -43 -10 -16 -37 -48 -59 -71 l-40 -43 -101 0 c-101 0 -101 0
-135 33 -32 31 -70 85 -70 99 0 4 10 9 23 11 17 3 15 5 -8 6 -25 1 -33 7 -43
33 -6 17 -15 29 -18 25 -4 -4 -2 -13 4 -20 7 -8 9 -17 6 -20 -4 -3 5 -20 20
-37 14 -17 26 -35 26 -40 0 -5 6 -15 13 -22 6 -8 23 -26 37 -42 l25 -27 -55 7
c-66 9 -109 26 -170 67 -86 59 -193 172 -146 154 9 -4 16 -2 16 2 0 5 -12 13
-28 19 -19 7 -37 27 -60 73 -18 35 -29 65 -23 67 5 2 34 -8 64 -22 30 -14 60
-26 68 -25 11 0 11 2 -1 6 -39 14 -141 67 -147 77 -10 16 -32 139 -27 148 3 5
10 6 15 3 16 -10 10 7 -7 19 -14 11 -15 21 -4 92 14 95 23 110 53 89 12 -8 28
-15 37 -15 8 1 0 7 -18 15 -18 8 -35 20 -38 28 -5 14 25 90 48 121 14 17 15
17 49 -3 19 -11 39 -21 44 -21 6 0 -9 12 -33 26 -48 29 -48 30 17 104 l40 45
53 -27 c29 -15 65 -32 81 -37 18 -7 27 -18 28 -33 1 -17 2 -19 6 -5 2 9 8 17
13 17 4 0 11 15 14 33 4 17 19 50 34 72 22 31 34 39 53 37 23 -3 23 -2 5 13
-11 8 -29 15 -40 15 -30 0 -66 11 -66 20 0 14 90 42 145 45 31 1 59 6 63 10 4
4 27 4 52 1 25 -4 70 -8 100 -10z m-302 -82 c4 -3 -56 -116 -68 -128 -9 -9
-134 45 -144 63 -7 10 34 44 94 78 33 18 38 18 75 4 22 -8 41 -16 43 -17z
m372 -1149 c0 -8 -82 -27 -88 -20 -11 10 21 25 56 25 17 0 32 -2 32 -5z m-285
-15 c3 -5 1 -10 -4 -10 -6 0 -11 5 -11 10 0 6 2 10 4 10 3 0 8 -4 11 -10z
m155 0 c0 -5 -25 -10 -55 -10 -30 0 -55 5 -55 10 0 6 25 10 55 10 30 0 55 -4
55 -10z m1077 -196 c39 -30 41 -43 9 -73 l-24 -23 -22 22 c-23 23 -50 24 -58
2 -2 -8 19 -36 48 -62 71 -66 90 -97 90 -147 0 -112 -146 -153 -212 -60 l-22
30 29 24 28 24 27 -26 c33 -31 64 -30 68 3 3 18 -13 41 -62 92 -62 64 -66 71
-66 115 0 93 91 137 167 79z m-2231 -59 l1 -70 54 0 53 0 -3 52 c-4 77 4 93
45 93 l34 0 0 -200 0 -200 -34 0 c-42 0 -48 15 -45 103 l3 62 -52 3 -51 3 -3
-83 -3 -83 -37 -3 -38 -3 0 201 0 201 38 -3 37 -3 1 -70z m459 35 l0 -35 -62
-3 c-62 -3 -63 -3 -63 -32 0 -29 1 -29 63 -32 l62 -3 3 -37 3 -38 -66 0 -66 0
3 -47 3 -48 63 -3 63 -3 -3 -37 -3 -37 -97 -3 -98 -3 0 201 0 201 98 -3 97 -3
0 -35z m251 7 c19 -22 24 -39 24 -83 0 -48 -4 -60 -28 -84 l-29 -28 39 -82
c21 -44 38 -83 38 -86 0 -2 -18 -4 -41 -4 l-40 0 -37 78 -37 77 -3 -77 -3 -78
-34 0 -35 0 0 201 0 201 81 -4 c74 -3 83 -6 105 -31z m235 -83 c19 -63 39
-115 45 -114 5 1 16 27 25 58 53 186 46 172 88 172 l38 0 21 -137 c12 -76 24
-166 28 -200 l7 -63 -36 0 -35 0 -11 78 c-7 42 -15 93 -20 112 l-7 35 -8 -30
c-4 -16 -19 -67 -32 -112 -25 -82 -25 -83 -59 -83 -32 0 -34 2 -53 63 -11 34
-25 82 -32 106 -6 24 -15 40 -19 35 -5 -5 -13 -49 -19 -97 -6 -48 -14 -92 -17
-97 -4 -6 -22 -10 -42 -10 -35 0 -35 1 -29 33 4 17 15 90 26 162 34 225 27
205 69 205 l37 0 35 -116z m499 76 l0 -40 -60 0 -60 0 0 -30 c0 -30 1 -30 54
-30 59 0 80 -14 74 -52 -3 -21 -9 -23 -65 -26 l-63 -3 0 -49 0 -50 60 0 c66 0
77 -9 66 -55 -7 -26 -7 -26 -104 -23 l-97 3 -3 185 c-1 101 0 190 2 197 4 9
32 13 101 13 l95 0 0 -40z m230 0 c0 -39 -1 -40 -35 -40 l-35 0 0 -160 0 -160
-35 0 -35 0 0 160 0 160 -35 0 c-33 0 -35 2 -35 33 0 19 3 37 7 40 3 4 51 7
105 7 l98 0 0 -40z m225 23 c22 -54 125 -360 125 -371 0 -9 -12 -12 -37 -10
-33 3 -39 7 -49 38 l-12 35 -70 3 c-71 3 -71 3 -78 -25 -4 -15 -11 -34 -17
-40 -12 -16 -77 -17 -77 -1 0 6 15 55 34 107 19 53 50 138 68 189 l32 92 37 0
c26 0 39 -5 44 -17z"/>
<path d="M1875 2085 c-16 -13 -27 -26 -25 -29 3 -2 18 7 34 20 37 32 30 39 -9
9z"/>
<path d="M2100 2106 c0 -4 14 -19 30 -33 26 -21 29 -28 18 -41 -11 -13 -10
-15 4 -10 19 8 37 -11 67 -67 l21 -40 -22 -17 c-13 -10 -18 -18 -11 -18 6 0
14 4 18 10 3 5 12 7 20 3 15 -5 22 22 8 29 -5 2 -21 27 -36 56 -16 29 -38 63
-50 75 -35 35 -67 61 -67 53z"/>
<path d="M2208 2043 c7 -3 16 -2 19 1 4 3 -2 6 -13 5 -11 0 -14 -3 -6 -6z"/>
<path d="M1953 2013 c31 -2 83 -2 115 0 31 2 5 3 -58 3 -63 0 -89 -1 -57 -3z"/>
<path d="M1788 1873 c6 -2 18 -2 25 0 6 3 1 5 -13 5 -14 0 -19 -2 -12 -5z"/>
<path d="M2148 1873 c6 -2 18 -2 25 0 6 3 1 5 -13 5 -14 0 -19 -2 -12 -5z"/>
<path d="M2261 1864 c0 -11 3 -14 6 -6 3 7 2 16 -1 19 -3 4 -6 -2 -5 -13z"/>
<path d="M1848 1863 c6 -2 18 -2 25 0 6 3 1 5 -13 5 -14 0 -19 -2 -12 -5z"/>
<path d="M2093 1863 c9 -2 23 -2 30 0 6 3 -1 5 -18 5 -16 0 -22 -2 -12 -5z"/>
<path d="M1731 1824 c0 -11 3 -14 6 -6 3 7 2 16 -1 19 -3 4 -6 -2 -5 -13z"/>
<path d="M2272 1820 c0 -14 2 -19 5 -12 2 6 2 18 0 25 -3 6 -5 1 -5 -13z"/>
<path d="M1601 1792 c30 -22 112 -62 128 -62 6 0 11 -4 11 -10 0 -12 -5 -13
-28 -1 -59 31 -123 61 -132 61 -5 0 -10 -6 -10 -14 0 -19 47 -52 96 -69 22 -7
38 -18 37 -24 -1 -6 6 -9 15 -6 10 2 38 -3 62 -12 25 -9 61 -20 80 -24 35 -7
35 -7 12 -20 -24 -13 -57 -8 -48 7 3 5 -6 7 -19 4 -14 -2 -25 0 -25 7 0 5 -7
8 -16 4 -9 -3 -19 -2 -23 3 -3 5 -28 17 -56 25 -27 9 -49 21 -48 26 1 6 -7 9
-19 5 -16 -4 -19 -2 -13 8 5 9 4 11 -4 6 -6 -4 -18 -3 -25 3 -10 8 -17 6 -29
-7 -19 -21 -49 -101 -42 -112 2 -4 0 -21 -4 -38 -9 -30 -8 -31 52 -61 34 -17
81 -36 105 -43 48 -14 59 -31 25 -36 -13 -2 -23 1 -23 6 0 6 -9 8 -20 5 -11
-3 -20 0 -20 6 0 6 -7 11 -16 11 -9 0 -39 11 -66 25 -48 24 -51 24 -64 8 -7
-10 -12 -22 -11 -27 9 -29 264 -127 370 -142 42 -6 47 -4 47 12 -1 50 -9 60
-52 56 -28 -3 -38 -1 -34 7 5 7 1 9 -8 5 -9 -3 -24 -3 -33 1 -10 5 -24 9 -30
9 -23 2 -19 21 5 24 12 2 22 -1 22 -7 0 -6 7 -8 16 -4 8 3 25 1 37 -5 12 -6
36 -12 54 -15 28 -3 34 1 44 25 24 58 4 62 403 -76 104 -36 197 -66 207 -66
23 0 34 36 17 53 -7 6 -47 23 -88 36 -41 13 -88 30 -105 37 -16 7 -99 35 -184
63 -85 29 -162 56 -172 61 -10 6 -19 24 -21 43 -3 31 -5 32 -40 29 -21 -2 -38
1 -38 7 0 14 37 24 65 17 25 -6 43 10 28 25 -5 5 -36 14 -68 20 -61 11 -97 29
-59 29 11 0 24 -4 29 -9 14 -13 125 -25 125 -14 0 32 -298 143 -383 143 l-40
0 24 -18z m174 -82 c3 -5 -1 -10 -10 -10 -9 0 -13 5 -10 10 3 6 8 10 10 10 2
0 7 -4 10 -10z m42 -16 c-3 -3 -12 -4 -19 -1 -8 3 -5 6 6 6 11 1 17 -2 13 -5z"/>
<path d="M2277 1775 c-16 -12 -16 -13 1 -17 21 -6 48 17 29 25 -7 3 -21 -1
-30 -8z"/>
<path d="M2225 1750 c-3 -5 -2 -10 4 -10 5 0 13 5 16 10 3 6 2 10 -4 10 -5 0
-13 -4 -16 -10z"/>
<path d="M2163 1733 c9 -2 23 -2 30 0 6 3 -1 5 -18 5 -16 0 -22 -2 -12 -5z"/>
<path d="M2088 1723 c12 -2 30 -2 40 0 9 3 -1 5 -23 4 -22 0 -30 -2 -17 -4z"/>
<path d="M2302 1690 c0 -19 2 -27 5 -17 2 9 2 25 0 35 -3 9 -5 1 -5 -18z"/>
<path d="M2313 1629 c-18 -5 -35 -14 -39 -20 -4 -7 1 -9 15 -4 19 6 21 3 21
-39 0 -28 5 -46 11 -46 8 0 10 16 6 49 -5 43 -3 50 16 59 27 13 13 13 -30 1z"/>
<path d="M2200 1590 c-20 -6 -21 -8 -5 -8 11 0 31 4 45 8 20 6 21 8 5 8 -11 0
-31 -4 -45 -8z"/>
<path d="M2123 1563 c9 -2 23 -2 30 0 6 3 -1 5 -18 5 -16 0 -22 -2 -12 -5z"/>
<path d="M2013 1553 c15 -2 39 -2 55 0 15 2 2 4 -28 4 -30 0 -43 -2 -27 -4z"/>
<path d="M2310 1440 c0 -11 5 -20 10 -20 6 0 10 9 10 20 0 11 -4 20 -10 20 -5
0 -10 -9 -10 -20z"/>
<path d="M2093 1373 c9 -2 23 -2 30 0 6 3 -1 5 -18 5 -16 0 -22 -2 -12 -5z"/>
<path d="M1928 1353 c18 -2 45 -2 60 0 15 2 0 4 -33 4 -33 0 -45 -2 -27 -4z"/>
<path d="M1702 1290 c0 -19 2 -27 5 -17 2 9 2 25 0 35 -3 9 -5 1 -5 -18z"/>
<path d="M2302 1290 c0 -19 2 -27 5 -17 2 9 2 25 0 35 -3 9 -5 1 -5 -18z"/>
<path d="M2346 1255 c-11 -8 -15 -15 -10 -15 6 0 19 7 30 15 10 8 15 14 9 14
-5 0 -19 -6 -29 -14z"/>
<path d="M2290 1241 c0 -4 -10 -13 -22 -19 l-23 -11 23 0 c30 -1 59 24 37 33
-8 3 -15 2 -15 -3z"/>
<path d="M1712 1215 c-1 -16 5 -39 13 -49 8 -11 15 -14 15 -8 0 7 12 13 28 13
27 2 27 2 2 6 -33 6 -48 19 -53 46 -3 16 -5 14 -5 -8z"/>
<path d="M1576 1220 c5 -5 25 -12 44 -15 36 -5 29 -1 -25 16 -20 6 -26 6 -19
-1z"/>
<path d="M2208 1203 c6 -2 18 -2 25 0 6 3 1 5 -13 5 -14 0 -19 -2 -12 -5z"/>
<path d="M1670 1190 c20 -13 33 -13 25 0 -3 6 -14 10 -23 10 -15 0 -15 -2 -2
-10z"/>
<path d="M2160 1190 c0 -5 7 -7 15 -4 8 4 15 8 15 10 0 2 -7 4 -15 4 -8 0 -15
-4 -15 -10z"/>
<path d="M2073 1173 c9 -2 25 -2 35 0 9 3 1 5 -18 5 -19 0 -27 -2 -17 -5z"/>
<path d="M2271 1164 c0 -11 3 -14 6 -6 3 7 2 16 -1 19 -3 4 -6 -2 -5 -13z"/>
<path d="M1873 1163 c32 -2 81 -2 110 0 29 2 3 3 -58 3 -60 0 -84 -1 -52 -3z"/>
<path d="M1741 1124 c0 -11 3 -14 6 -6 3 7 2 16 -1 19 -3 4 -6 -2 -5 -13z"/>
<path d="M2261 1124 c0 -11 3 -14 6 -6 3 7 2 16 -1 19 -3 4 -6 -2 -5 -13z"/>
<path d="M2405 1126 c-11 -7 -33 -18 -50 -25 -29 -11 -29 -11 -2 -6 28 6 100
45 82 45 -6 0 -19 -6 -30 -14z"/>
<path d="M1555 1100 c11 -5 27 -9 35 -9 9 0 8 4 -5 9 -11 5 -27 9 -35 9 -9 0
-8 -4 5 -9z"/>
<path d="M1617 1079 c7 -7 15 -10 18 -7 3 3 -2 9 -12 12 -14 6 -15 5 -6 -5z"/>
<path d="M1658 1063 c6 -2 18 -2 25 0 6 3 1 5 -13 5 -14 0 -19 -2 -12 -5z"/>
<path d="M1700 1056 c0 -2 9 -6 20 -9 11 -3 20 -1 20 4 0 5 -9 9 -20 9 -11 0
-20 -2 -20 -4z"/>
<path d="M2103 1033 c9 -2 25 -2 35 0 9 3 1 5 -18 5 -19 0 -27 -2 -17 -5z"/>
<path d="M1918 1023 c29 -2 74 -2 100 0 26 2 2 3 -53 3 -55 0 -76 -1 -47 -3z"/>
<path d="M1500 576 c0 -33 2 -36 30 -36 55 0 51 62 -4 68 -24 3 -26 0 -26 -32z"/>
<path d="M2742 511 c-17 -56 -16 -61 23 -61 19 0 35 3 35 7 0 16 -33 93 -40
93 -4 0 -12 -17 -18 -39z"/>
</g>
</svg>
