<?xml version="1.0" standalone="no"?>
<!DOCTYPE svg PUBLIC "-//W3C//DTD SVG 20010904//EN"
 "http://www.w3.org/TR/2001/REC-SVG-20010904/DTD/svg10.dtd">
<svg version="1.0" xmlns="http://www.w3.org/2000/svg"
 width="2333.000000pt" height="2333.000000pt" viewBox="0 0 2333.000000 2333.000000"
 preserveAspectRatio="xMidYMid meet">
<metadata>
Created by potrace 1.11, written by Peter Selinger 2001-2013
</metadata>
<g transform="translate(0.000000,2333.000000) scale(0.100000,-0.100000)"
fill="#000000" stroke="none">
<path d="M11535 23290 c-62 -11 -436 -198 -1050 -525 -643 -342 -1084 -554
-1580 -760 -2069 -860 -4221 -1367 -6490 -1530 -421 -30 -903 -53 -2030 -95
-154 -6 -304 -13 -332 -16 l-53 -5 0 -127 c0 -70 4 -154 10 -187 19 -120 92
-696 180 -1420 100 -819 106 -869 191 -1470 121 -852 222 -1392 414 -2210 427
-1817 1021 -3555 1783 -5215 139 -302 493 -1016 653 -1315 1321 -2474 2899
-4489 4785 -6106 865 -743 1796 -1400 2810 -1985 541 -311 725 -364 1030 -294
156 36 374 148 894 460 3033 1818 5423 4404 7247 7840 1532 2885 2545 6090
3077 9738 75 512 108 812 186 1697 28 314 53 589 56 611 l6 42 -304 5 c-166 3
-442 12 -613 21 -170 8 -524 25 -785 36 -1128 48 -1616 92 -2488 226 -1756
268 -3466 752 -5064 1433 -681 290 -1451 671 -2063 1020 -96 55 -194 107 -219
115 -57 19 -186 28 -251 16z m7539 -3477 l109 -6 -7 -151 c-6 -150 -21 -338
-32 -407 l-5 -35 -252 -53 c-744 -155 -989 -225 -1282 -365 l-130 -62 -30
-100 -30 -99 -3 -315 c-1 -173 -2 -1066 -2 -1985 1 -918 -3 -1904 -8 -2190 -7
-329 -7 -672 -1 -935 5 -228 14 -923 19 -1545 5 -621 12 -1377 16 -1680 3
-323 2 -641 -4 -770 -5 -121 -9 -221 -8 -222 5 -6 335 -88 496 -123 447 -98
731 -177 1041 -287 l156 -56 6 -96 c4 -53 10 -184 13 -292 l7 -197 -149 -7
c-289 -15 -821 7 -1309 55 -581 56 -1562 87 -2475 77 -615 -7 -957 -25 -1703
-93 -276 -25 -293 -25 -381 -10 -51 8 -105 20 -121 26 l-28 11 7 147 c7 150
22 316 31 363 6 25 14 28 363 108 256 58 463 98 732 141 392 62 662 125 680
159 10 19 56 483 70 706 28 453 47 1255 51 2140 2 432 0 562 -14 705 -9 96
-22 354 -29 572 l-12 396 -55 6 c-76 8 -352 24 -541 31 -85 3 -1140 17 -2345
31 -1331 15 -2222 28 -2271 35 -57 7 -131 7 -252 0 -94 -6 -296 -11 -449 -11
-298 0 -359 -6 -525 -47 l-107 -26 -5 -51 c-26 -256 -29 -504 -27 -2206 2
-1745 8 -2158 36 -2296 3 -13 28 -35 63 -56 48 -29 78 -38 172 -52 1060 -160
1309 -204 1509 -268 93 -30 96 -34 111 -183 12 -124 10 -181 -11 -336 l-11
-76 -111 -6 c-167 -10 -595 -8 -822 3 -110 6 -506 24 -880 41 -374 16 -729 34
-790 39 -167 14 -673 30 -925 30 -256 0 -732 -23 -925 -45 -306 -34 -678 -52
-1274 -62 l-423 -6 6 104 c18 266 44 479 60 485 6 2 270 49 586 104 316 55
595 105 620 111 72 16 246 67 362 105 l107 35 5 52 c3 29 31 547 62 1152 l57
1100 -14 595 c-17 734 -18 1406 -2 1860 15 424 17 3710 3 4120 -17 466 -65
986 -102 1100 -11 36 -31 88 -44 117 -21 49 -26 53 -76 67 -29 8 -75 18 -103
21 -27 4 -129 20 -225 35 -250 41 -370 57 -575 75 -99 9 -218 25 -265 35 -47
11 -141 29 -210 39 -69 11 -143 26 -165 33 l-40 13 -13 130 c-15 152 -10 260
16 368 11 43 21 79 23 82 29 28 879 51 1089 29 618 -65 1133 -103 1560 -114
190 -5 479 -14 643 -21 235 -10 354 -10 565 -1 483 21 1260 81 1397 107 158
30 577 29 797 -1 l46 -6 8 -117 c7 -110 -6 -334 -24 -421 -8 -35 -8 -35 -87
-47 -299 -48 -1139 -180 -1324 -209 -179 -28 -234 -40 -272 -61 -102 -55 -176
-159 -181 -253 -1 -25 6 -141 16 -259 15 -175 17 -262 11 -490 -3 -152 -8
-733 -11 -1291 -2 -588 -8 -1059 -14 -1119 -5 -58 -10 -220 -10 -360 1 -253
21 -696 33 -708 9 -8 136 -30 281 -48 172 -21 1358 -43 2766 -50 1082 -5 1226
-3 2015 19 939 28 1127 37 1325 66 210 31 186 14 193 134 4 57 12 430 18 828
6 397 14 797 18 888 10 231 -41 1697 -69 1975 -40 392 -49 464 -59 482 -77
144 -585 336 -1401 528 -107 25 -232 57 -277 71 -82 24 -83 25 -83 57 0 75 47
395 61 419 7 11 106 13 561 10 509 -2 571 -4 778 -27 749 -81 1360 -97 2400
-63 847 29 999 37 1150 63 118 21 220 35 365 49 53 5 582 -2 719 -11z"/>
</g>
</svg>
